<?xml version="1.0" standalone="no"?>
<!DOCTYPE svg PUBLIC "-//W3C//DTD SVG 20010904//EN"
 "http://www.w3.org/TR/2001/REC-SVG-20010904/DTD/svg10.dtd">
<svg version="1.0" xmlns="http://www.w3.org/2000/svg"
 width="512.000000pt" height="512.000000pt" viewBox="0 0 512.000000 512.000000"
 preserveAspectRatio="xMidYMid meet">

<g transform="translate(0.000000,512.000000) scale(0.100000,-0.100000)"
fill="#000000" stroke="none">
<path d="M240 5027 c-49 -16 -133 -102 -148 -153 -18 -60 -18 -3608 0 -3668
16 -55 99 -138 154 -154 31 -9 269 -12 966 -12 l926 0 -60 -239 -60 -239 -177
-4 c-174 -3 -177 -3 -243 -35 -37 -17 -87 -50 -112 -74 -63 -57 -114 -163
-123 -251 -5 -62 -4 -68 20 -92 l26 -26 1151 0 1151 0 26 26 c24 24 25 30 20
92 -9 88 -60 194 -123 251 -25 24 -75 57 -112 74 -66 32 -69 32 -243 35 l-177
4 -60 239 -60 239 927 0 c1053 0 988 -5 1064 80 24 26 49 66 55 88 17 57 17
3607 0 3664 -6 22 -31 62 -55 88 -79 88 155 80 -2417 79 -1633 -1 -2291 -4
-2316 -12z m4615 -172 l25 -24 0 -1496 0 -1495 -2320 0 -2320 0 0 1495 0 1496
25 24 24 25 2271 0 2271 0 24 -25z m25 -3390 c0 -216 0 -216 -25 -240 l-24
-25 -2271 0 -2271 0 -24 25 c-25 24 -25 24 -25 240 l0 215 2320 0 2320 0 0
-215z m-2002 -665 l60 -240 -378 0 -378 0 60 240 60 240 258 0 258 0 60 -240z
m556 -412 c45 -13 146 -105 146 -132 0 -14 -101 -16 -1020 -16 -919 0 -1020 2
-1020 16 0 24 101 119 140 131 52 16 1698 17 1754 1z"/>
<path d="M560 4707 c-49 -16 -133 -102 -148 -153 -16 -56 -16 -412 0 -468 16
-55 99 -138 154 -154 26 -8 112 -12 236 -12 234 0 266 8 331 80 49 55 67 103
67 184 l0 56 160 0 160 0 0 -240 0 -240 -56 0 c-87 0 -133 -18 -189 -75 -69
-68 -75 -94 -75 -325 0 -231 6 -257 75 -325 56 -57 102 -75 189 -75 l56 0 0
-240 0 -240 -160 0 -160 0 0 56 c0 81 -18 129 -67 184 -65 72 -97 80 -331 80
-233 0 -258 -6 -327 -75 -69 -68 -75 -94 -75 -325 0 -231 6 -257 75 -325 69
-69 94 -75 327 -75 234 0 266 8 331 80 49 55 67 103 67 184 l0 56 215 0 c216
0 216 0 240 25 l25 24 0 296 0 295 56 0 c87 0 133 18 189 75 57 56 75 102 75
189 l0 56 720 0 720 0 0 -400 0 -400 -320 0 -320 0 0 56 c0 81 -18 129 -67
184 -65 72 -97 80 -331 80 -233 0 -258 -6 -327 -75 -69 -68 -75 -94 -75 -325
0 -231 6 -257 75 -325 69 -69 94 -75 327 -75 234 0 266 8 331 80 49 55 67 103
67 184 l0 56 375 0 376 0 24 25 25 24 0 456 0 455 80 0 80 0 0 -135 c0 -131 1
-137 25 -160 l24 -25 431 0 431 0 24 25 25 24 0 271 0 271 -25 24 c-24 24 -28
25 -181 25 l-158 0 -82 80 -82 80 -191 0 c-190 0 -192 0 -216 -25 -24 -23 -25
-29 -25 -160 l0 -135 -240 0 -240 0 0 455 0 456 -25 24 c-24 25 -24 25 -240
25 l-215 0 0 56 c0 81 -18 129 -67 184 -65 72 -97 80 -331 80 -233 0 -258 -6
-327 -75 -69 -68 -75 -94 -75 -325 0 -231 6 -257 75 -325 69 -69 94 -75 327
-75 234 0 266 8 331 80 49 55 67 103 67 184 l0 56 160 0 160 0 0 -400 0 -400
-560 0 -560 0 0 56 c0 87 -18 133 -75 189 -56 57 -102 75 -189 75 l-56 0 0
295 0 296 -25 24 c-24 25 -24 25 -240 25 l-215 0 0 56 c0 81 -18 129 -67 184
-66 73 -96 80 -337 79 -116 -1 -216 -6 -236 -12z m455 -172 c25 -24 25 -26 25
-215 0 -257 17 -240 -240 -240 -257 0 -240 -17 -240 240 0 257 -17 240 240
240 189 0 191 0 215 -25z m1600 0 c25 -24 25 -26 25 -215 0 -189 0 -191 -25
-215 -24 -25 -26 -25 -215 -25 -257 0 -240 -17 -240 240 0 257 -17 240 240
240 189 0 191 0 215 -25z m-800 -960 c25 -24 25 -26 25 -215 0 -257 17 -240
-240 -240 -257 0 -240 -17 -240 240 0 257 -17 240 240 240 189 0 191 0 215
-25z m2391 -55 l82 -80 136 0 136 0 0 -160 0 -160 -320 0 -320 0 0 240 0 240
102 0 102 0 82 -80z m-3191 -905 c25 -24 25 -26 25 -215 0 -257 17 -240 -240
-240 -257 0 -240 -17 -240 240 0 257 -17 240 240 240 189 0 191 0 215 -25z
m1600 0 c25 -24 25 -26 25 -215 0 -189 0 -191 -25 -215 -24 -25 -26 -25 -215
-25 -257 0 -240 -17 -240 240 0 257 -17 240 240 240 189 0 191 0 215 -25z"/>
<path d="M400 1440 l0 -80 80 0 80 0 0 80 0 80 -80 0 -80 0 0 -80z"/>
<path d="M720 1440 l0 -80 80 0 80 0 0 80 0 80 -80 0 -80 0 0 -80z"/>
<path d="M2480 1440 l0 -80 80 0 80 0 0 80 0 80 -80 0 -80 0 0 -80z"/>
</g>
</svg>
