<?xml version="1.0" standalone="no"?>
<!DOCTYPE svg PUBLIC "-//W3C//DTD SVG 20010904//EN"
 "http://www.w3.org/TR/2001/REC-SVG-20010904/DTD/svg10.dtd">
<svg version="1.0" xmlns="http://www.w3.org/2000/svg"
 width="512.000000pt" height="512.000000pt" viewBox="0 0 512.000000 512.000000"
 preserveAspectRatio="xMidYMid meet">

<g transform="translate(0.000000,512.000000) scale(0.100000,-0.100000)"
fill="#000000" stroke="none">
<path d="M180 4557 l-25 -13 -3 -1796 c-2 -1623 -1 -1798 14 -1812 14 -14 153
-16 1393 -16 l1378 0 101 -70 c94 -65 220 -177 253 -225 8 -11 27 -31 43 -43
54 -42 90 -34 523 114 219 74 409 142 421 151 13 8 31 28 40 44 l17 29 302 0
c261 0 304 2 317 16 15 14 16 189 14 1812 l-3 1796 -25 13 c-20 10 -501 13
-2380 13 -1879 0 -2360 -3 -2380 -13z m4690 -1812 l0 -1725 -280 0 -280 0 -29
58 c-35 70 -71 170 -115 318 l-34 113 229 3 c170 2 231 6 241 16 11 11 13 268
13 1353 0 1316 0 1341 -19 1355 -30 21 -4042 21 -4072 0 -19 -14 -19 -39 -19
-1355 0 -1086 2 -1342 13 -1353 10 -10 182 -14 862 -16 845 -2 850 -2 850 -22
0 -61 80 -161 200 -250 36 -27 128 -87 205 -134 l139 -86 -1262 0 -1262 0 0
1725 0 1725 2310 0 2310 0 0 -1725z m-352 138 l-3 -1268 -205 0 -204 0 -39
140 c-92 339 -173 521 -277 627 -55 54 -76 69 -123 83 -66 19 -112 13 -164
-22 -35 -24 -36 -24 -57 -5 -59 55 -163 78 -233 51 -36 -13 -78 -54 -93 -89
l-11 -27 -71 36 c-62 31 -80 36 -142 36 -54 0 -79 -5 -107 -21 l-35 -21 -29
53 c-26 48 -27 55 -15 81 7 15 23 55 35 88 l23 59 97 32 c53 17 101 37 106 45
14 22 11 222 -3 241 -7 9 -55 30 -107 45 l-94 29 -22 60 c-13 32 -28 73 -35
89 -12 28 -9 36 34 116 25 47 46 91 46 98 0 17 -148 169 -171 176 -10 4 -56
-13 -109 -40 l-92 -46 -72 30 c-39 16 -78 32 -87 34 -9 3 -26 41 -44 101 -18
61 -35 100 -46 106 -27 15 -222 13 -241 -2 -9 -7 -30 -56 -46 -108 -25 -79
-34 -95 -54 -101 -14 -3 -52 -19 -86 -34 l-61 -27 -90 46 c-49 25 -95 46 -101
46 -16 0 -168 -148 -175 -171 -4 -11 12 -54 41 -109 l46 -91 -27 -61 c-15 -34
-31 -72 -34 -86 -6 -20 -22 -29 -101 -54 -52 -16 -101 -37 -107 -46 -16 -19
-18 -214 -3 -241 6 -11 45 -28 106 -46 60 -18 98 -35 101 -44 2 -9 18 -48 34
-87 l30 -72 -46 -92 c-27 -53 -44 -99 -40 -109 7 -23 159 -171 176 -171 7 0
51 21 98 46 80 43 88 46 116 34 16 -7 57 -22 89 -35 l60 -22 29 -94 c15 -52
36 -100 45 -106 10 -9 53 -13 123 -13 128 0 130 1 160 106 12 41 25 74 29 74
9 0 250 -366 250 -378 0 -4 -26 -18 -57 -31 -31 -14 -82 -44 -115 -68 l-58
-43 -828 2 -827 3 -3 1268 -2 1267 1960 0 1960 0 -2 -1267z m-2383 740 c15
-49 31 -93 36 -99 5 -6 28 -16 51 -23 24 -7 78 -28 120 -48 l76 -35 89 45 89
46 42 -41 41 -41 -47 -87 -47 -87 37 -79 c20 -43 42 -98 49 -122 7 -23 17 -46
23 -51 6 -5 50 -21 99 -36 l87 -26 0 -58 0 -59 -87 -27 c-49 -15 -93 -31 -100
-37 -7 -5 -19 -35 -28 -66 -9 -32 -30 -81 -46 -111 -16 -30 -29 -61 -29 -69 0
-8 21 -53 47 -100 25 -48 42 -82 36 -77 -10 10 -173 239 -186 261 -4 7 6 41
23 75 113 244 8 540 -234 659 -199 98 -411 68 -569 -80 -79 -74 -121 -145
-147 -244 -24 -94 -25 -149 -5 -234 51 -215 220 -366 441 -394 l90 -12 41 -62
41 -61 -30 -97 -31 -96 -58 0 -58 0 -27 88 c-14 48 -30 92 -35 98 -5 6 -28 16
-51 23 -24 7 -79 29 -122 49 l-79 37 -87 -47 -87 -47 -41 41 -41 41 46 90 45
90 -40 86 c-22 47 -43 100 -47 118 -8 42 -15 47 -117 78 l-88 26 0 59 0 59 88
27 c102 31 109 35 117 77 4 18 25 72 48 120 l40 88 -46 87 -46 88 41 42 42 41
87 -46 87 -47 89 41 c48 22 102 44 120 48 42 8 46 15 77 118 l27 87 58 0 59 0
27 -87z m3 -343 c207 -48 351 -261 313 -465 -12 -65 -29 -115 -40 -115 -3 0
-28 28 -56 61 -117 143 -262 201 -366 148 -100 -51 -104 -191 -8 -366 l39 -72
-38 5 c-20 3 -69 21 -109 40 -194 93 -280 311 -203 518 25 66 108 161 175 200
84 49 199 67 293 46z m14 -471 c77 -39 173 -153 370 -434 57 -82 130 -192 162
-242 51 -81 62 -93 86 -93 53 0 59 29 26 115 -8 22 -15 60 -16 84 0 36 6 49
34 77 80 80 206 25 336 -146 22 -28 30 -32 53 -26 37 9 43 41 18 96 -11 25
-21 59 -21 76 0 38 31 79 65 88 59 15 156 -59 197 -151 21 -47 56 -65 84 -43
12 11 14 26 8 81 -6 67 -6 69 20 80 72 33 166 -46 244 -204 63 -127 101 -242
191 -573 81 -299 125 -431 186 -561 32 -67 40 -94 32 -101 -24 -19 -810 -282
-826 -277 -9 3 -34 27 -54 54 -81 106 -220 210 -557 416 -417 256 -507 343
-440 428 20 25 169 107 194 107 6 0 24 -22 39 -50 35 -63 59 -77 93 -55 13 8
24 23 24 32 0 27 -95 179 -353 567 -132 198 -261 400 -285 447 -48 92 -63 169
-43 208 16 28 77 28 133 0z"/>
<path d="M573 1390 c-64 -38 -88 -142 -46 -198 30 -41 82 -72 120 -72 148 0
206 186 84 267 -43 29 -113 31 -158 3z m105 -86 c24 -17 29 -53 10 -72 -27
-27 -88 -3 -88 34 0 15 35 54 48 54 4 0 18 -7 30 -16z"/>
<path d="M964 1400 c-27 -11 -72 -65 -80 -96 -16 -64 17 -136 77 -166 125 -65
255 68 193 198 -29 62 -120 93 -190 64z m104 -124 c4 -33 -13 -56 -42 -56 -47
0 -63 57 -25 84 30 20 63 6 67 -28z"/>
<path d="M2922 3358 c-7 -7 -12 -25 -12 -40 0 -21 6 -31 26 -38 32 -13 465
-13 497 -1 30 12 39 43 20 70 -14 20 -23 21 -267 21 -183 0 -255 -3 -264 -12z"/>
<path d="M3546 3354 c-21 -21 -20 -40 4 -64 17 -17 33 -20 120 -20 87 0 103 3
120 20 25 25 25 42 2 63 -26 24 -223 25 -246 1z"/>
<path d="M3060 3130 c-25 -25 -25 -42 -2 -63 27 -24 263 -25 286 -1 21 21 20
40 -4 64 -18 18 -33 20 -140 20 -107 0 -122 -2 -140 -20z"/>
<path d="M3458 3143 c-22 -5 -35 -50 -21 -72 9 -14 42 -16 231 -19 190 -2 222
0 236 14 21 21 20 40 -4 64 -19 19 -32 20 -222 19 -112 -1 -211 -3 -220 -6z"/>
<path d="M3138 2884 c-9 -18 -9 -30 -1 -42 9 -15 37 -17 248 -17 211 0 239 2
248 17 8 12 8 24 -1 42 l-12 26 -235 0 -235 0 -12 -26z"/>
<path d="M3732 2898 c-19 -19 -14 -55 10 -72 35 -25 198 -22 229 3 20 16 22
23 14 47 l-10 29 -115 3 c-81 2 -119 -1 -128 -10z"/>
<path d="M2990 2690 c-24 -24 -25 -43 -4 -64 13 -14 49 -16 233 -16 234 0 241
2 241 52 0 21 -6 31 -26 38 -14 6 -115 10 -225 10 -186 0 -200 -1 -219 -20z"/>
<path d="M3519 2691 c-20 -16 -22 -23 -14 -47 l10 -29 124 -3 c105 -2 127 0
142 14 24 22 24 39 -1 64 -18 18 -33 20 -129 20 -92 0 -112 -3 -132 -19z"/>
</g>
</svg>
