<?xml version="1.0" standalone="no"?>
<!DOCTYPE svg PUBLIC "-//W3C//DTD SVG 20010904//EN"
 "http://www.w3.org/TR/2001/REC-SVG-20010904/DTD/svg10.dtd">
<svg version="1.0" xmlns="http://www.w3.org/2000/svg"
 width="512.000000pt" height="512.000000pt" viewBox="0 0 512.000000 512.000000"
 preserveAspectRatio="xMidYMid meet">

<g transform="translate(0.000000,512.000000) scale(0.100000,-0.100000)"
fill="#000000" stroke="none">
<path d="M2460 4964 c-248 -30 -574 -105 -925 -214 -126 -39 -201 -58 -203
-51 -12 37 -31 41 -203 41 -156 0 -171 -2 -189 -20 -19 -19 -20 -33 -20 -438
0 -362 2 -421 16 -440 15 -21 21 -22 185 -22 98 0 178 4 190 10 12 7 19 21 19
40 l0 29 98 -34 c247 -86 425 -116 569 -96 115 16 213 55 353 141 189 116 216
127 452 175 238 49 333 77 384 112 19 12 41 23 49 23 8 0 219 -52 468 -115
249 -63 472 -115 495 -115 59 0 90 15 108 54 29 60 13 101 -69 181 -122 118
-336 258 -707 462 -378 209 -572 271 -870 278 -91 2 -181 1 -200 -1z m435
-118 c102 -23 216 -62 335 -115 180 -80 617 -331 784 -449 111 -79 214 -177
200 -191 -7 -8 -144 23 -480 107 l-469 119 -6 35 c-25 154 -269 203 -639 128
-109 -22 -287 -76 -307 -92 -21 -17 -15 -56 10 -72 20 -14 32 -12 127 18 172
54 317 80 460 80 167 1 237 -22 255 -81 15 -54 -62 -86 -366 -148 -121 -25
-244 -54 -272 -65 -27 -11 -114 -58 -191 -104 -161 -98 -238 -129 -353 -146
-87 -13 -198 -4 -318 26 -79 20 -273 83 -308 101 l-27 14 2 286 3 287 120 39
c391 125 750 212 995 241 79 9 377 -3 445 -18z m-1815 -330 c0 -132 8 -156 50
-156 39 0 50 37 50 162 l0 118 25 0 25 0 0 -360 0 -360 -25 0 c-22 0 -25 4
-25 33 0 39 -24 77 -50 77 -30 0 -50 -28 -50 -71 0 -37 -2 -39 -30 -39 l-30 0
0 360 0 360 30 0 30 0 0 -124z"/>
<path d="M2760 4020 c-148 -18 -295 -105 -374 -219 -28 -40 -30 -41 -90 -41
-114 -1 -187 -46 -236 -143 -42 -84 -66 -94 -251 -99 -164 -4 -207 -18 -271
-83 -68 -68 -73 -88 -76 -297 l-3 -186 -29 -10 c-24 -9 -31 -21 -50 -84 l-22
-73 -63 -26 -64 -26 -58 33 c-32 18 -67 34 -78 34 -28 0 -145 -119 -145 -148
0 -12 14 -50 31 -84 l31 -62 -21 -43 c-12 -24 -21 -50 -21 -58 0 -9 -26 -22
-70 -36 -39 -12 -77 -28 -85 -36 -11 -10 -15 -39 -15 -102 0 -104 4 -110 98
-138 l63 -18 25 -62 25 -62 -31 -60 c-43 -86 -41 -98 34 -169 35 -34 69 -62
75 -62 6 0 43 16 82 36 46 23 75 32 82 26 7 -5 33 -17 58 -26 43 -16 47 -21
63 -74 32 -101 33 -102 141 -102 109 0 111 2 139 100 16 54 18 56 77 82 l61
27 69 -34 c38 -19 74 -35 80 -35 6 0 40 28 76 63 61 59 65 64 60 100 l-5 37
199 0 200 0 -40 -72 -40 -73 -165 -5 c-158 -5 -165 -6 -191 -30 -41 -38 -55
-73 -55 -138 0 -44 5 -66 19 -83 l19 -24 792 0 792 0 19 24 c14 17 19 39 19
83 0 65 -14 100 -55 138 -26 24 -33 25 -191 30 l-165 5 -39 70 -39 70 417 5
417 5 57 28 c61 30 95 64 131 131 l22 41 0 625 0 625 -27 51 c-31 59 -74 98
-138 128 -36 16 -73 21 -189 26 l-143 5 -17 65 c-30 121 -96 202 -211 257 -48
24 -68 27 -163 29 -100 2 -111 4 -135 27 -93 85 -267 135 -412 117z m161 -104
c82 -18 131 -42 203 -101 l55 -45 89 6 c69 5 100 3 139 -10 103 -34 183 -138
183 -238 0 -45 2 -48 56 -90 77 -58 96 -96 92 -175 -3 -51 -9 -69 -34 -100
-17 -20 -50 -48 -74 -60 -41 -22 -53 -23 -257 -23 l-213 0 0 149 c0 123 -3
152 -16 165 -13 14 -55 16 -300 16 -178 0 -293 -4 -305 -10 -18 -10 -19 -23
-19 -165 l0 -155 -223 0 c-219 0 -224 0 -274 25 -158 79 -143 291 24 350 73
25 75 28 88 77 6 25 19 57 27 71 32 48 128 72 193 47 36 -14 60 1 85 51 42 81
136 164 222 195 98 35 163 40 259 20z m-1071 -501 c0 -4 -8 -20 -17 -38 -23
-43 -22 -158 1 -211 25 -57 100 -131 159 -157 49 -23 65 -24 290 -27 l237 -3
0 -93 c0 -58 4 -96 12 -104 7 -7 39 -12 75 -12 l63 0 0 -35 0 -35 -84 0 c-71
0 -87 3 -98 18 -19 28 -52 42 -96 42 -50 0 -88 -29 -103 -80 -10 -32 -9 -44 7
-77 37 -75 125 -90 184 -32 28 28 30 29 141 29 142 0 149 5 149 102 0 39 4 68
10 68 6 0 10 -46 10 -118 0 -108 -2 -118 -21 -130 -43 -27 -58 -111 -26 -152
23 -31 62 -50 100 -50 31 0 46 7 73 34 29 29 34 41 34 81 0 38 -5 52 -30 77
-30 29 -30 30 -30 144 0 69 4 114 10 114 6 0 10 -30 10 -69 0 -98 4 -101 150
-101 114 0 118 -1 134 -25 9 -14 33 -29 57 -35 85 -23 165 57 140 140 -16 54
-52 80 -112 80 -39 0 -52 -5 -77 -30 -29 -28 -35 -30 -111 -30 l-81 0 0 35 0
35 63 0 c36 0 68 5 75 12 8 8 12 46 12 104 l0 93 228 3 c226 3 227 3 284 31
60 30 115 85 144 146 25 51 30 157 10 205 -9 21 -16 42 -16 47 0 5 33 9 73 9
88 0 143 -23 183 -76 l29 -37 3 -534 3 -533 -936 0 -935 0 0 39 c0 51 -15 64
-97 90 l-68 20 -23 62 -24 61 31 58 c17 32 31 68 31 81 0 30 -116 149 -145
149 -11 0 -46 -15 -79 -34 l-58 -33 -63 26 -63 26 -24 75 c-23 71 -26 75 -61
84 l-37 10 0 143 c0 79 5 165 11 190 14 53 64 108 112 122 35 10 177 15 177 6z
m1210 -330 l0 -225 -220 0 -220 0 0 225 0 225 220 0 220 0 0 -225z m-1489
-306 c16 -51 27 -73 43 -79 11 -4 55 -22 96 -39 41 -17 81 -31 89 -31 7 0 38
14 68 31 l55 32 26 -27 27 -26 -35 -64 -34 -64 31 -68 c17 -38 35 -82 40 -99
8 -26 19 -33 81 -55 71 -25 72 -25 72 -61 0 -36 0 -36 -65 -54 -72 -19 -77
-24 -95 -80 -7 -22 -24 -62 -37 -89 l-25 -50 33 -68 33 -68 -23 -24 -24 -25
-58 29 c-32 17 -67 30 -78 30 -10 0 -48 -13 -83 -30 -34 -16 -70 -30 -79 -30
-24 0 -39 -22 -58 -87 -17 -58 -17 -58 -56 -58 l-39 0 -20 65 -21 64 -65 26
c-36 14 -75 31 -87 38 -33 18 -58 15 -122 -18 l-58 -29 -24 25 -23 24 33 68
33 68 -25 50 c-13 27 -30 67 -37 89 -18 56 -23 60 -95 81 -64 19 -65 19 -65
54 0 35 1 36 72 60 62 22 73 29 80 55 5 17 23 60 40 96 l31 67 -34 66 -34 66
26 26 26 26 55 -31 c63 -36 77 -37 121 -14 18 9 59 26 91 38 l59 20 25 73 c23
70 24 72 58 72 33 0 34 -1 55 -71z m839 -135 c0 -16 -16 -19 -25 -4 -8 13 4
32 16 25 5 -4 9 -13 9 -21z m886 15 c8 -14 -11 -33 -25 -25 -11 7 -4 36 9 36
5 0 12 -5 16 -11z m-441 -219 c3 -6 -1 -13 -10 -16 -19 -8 -30 0 -20 15 8 14
22 14 30 1z m1245 -317 c-1 -27 -35 -96 -58 -116 -52 -47 -41 -46 -1054 -47
-527 0 -958 3 -958 8 0 4 9 29 19 57 18 49 20 50 82 68 35 10 71 25 79 33 12
12 157 14 952 14 887 0 938 -1 938 -17z m-1023 -335 l40 -73 -153 -3 c-85 -1
-223 -1 -308 0 l-155 3 42 73 41 72 226 0 226 0 41 -72z m451 -190 c7 -7 12
-25 12 -40 l0 -28 -730 0 -730 0 0 28 c0 15 5 33 12 40 17 17 1419 17 1436 0z"/>
<path d="M2718 3219 c-16 -9 -18 -26 -18 -127 0 -79 4 -122 12 -130 17 -17
239 -17 256 0 8 8 12 50 12 124 0 146 2 144 -138 144 -59 0 -115 -5 -124 -11z
m162 -134 l0 -45 -40 0 -40 0 0 45 0 45 40 0 40 0 0 -45z"/>
<path d="M1442 2619 c-105 -20 -203 -87 -260 -177 -126 -197 -49 -464 163
-568 55 -27 69 -29 170 -29 101 0 115 2 168 28 80 40 151 112 190 194 29 62
32 77 32 164 0 90 -2 99 -38 171 -58 119 -156 193 -287 218 -60 11 -77 11
-138 -1z m190 -116 c62 -28 115 -77 146 -137 23 -44 27 -63 27 -136 0 -77 -3
-90 -31 -140 -93 -166 -315 -205 -457 -81 -20 18 -50 60 -67 93 -53 108 -37
233 42 323 86 98 223 129 340 78z"/>
<path d="M3216 1350 c-115 -21 -217 -67 -399 -181 -130 -81 -147 -87 -407
-139 -209 -42 -282 -64 -360 -106 l-50 -27 -463 117 c-268 67 -482 116 -509
116 -68 0 -108 -36 -108 -96 0 -65 20 -95 121 -179 109 -91 218 -165 409 -277
440 -258 639 -349 873 -400 83 -18 136 -22 282 -22 102 -1 219 5 270 12 225
34 589 125 907 227 l107 35 25 -25 c25 -25 28 -25 188 -25 132 0 168 3 186 16
l22 15 0 429 c0 376 -2 430 -16 444 -13 13 -44 16 -188 16 -155 0 -175 -2
-189 -18 -10 -10 -17 -28 -17 -39 0 -19 -7 -17 -128 24 -71 23 -169 52 -219
63 -107 23 -267 33 -337 20z m214 -100 c102 -14 223 -45 358 -92 l112 -40 0
-293 0 -292 -52 -16 c-29 -8 -129 -38 -223 -67 -227 -69 -520 -143 -680 -171
-158 -28 -463 -33 -580 -10 -230 45 -565 204 -1008 478 -176 109 -361 263
-341 283 8 8 149 -24 479 -107 l468 -118 14 -47 c44 -152 292 -194 656 -113
242 54 313 86 300 136 -10 38 -35 39 -134 8 -172 -54 -330 -82 -474 -83 -138
-1 -192 10 -232 47 -13 11 -23 31 -23 43 0 53 83 85 366 139 236 46 299 68
426 148 250 156 372 192 568 167z m630 -89 c0 -41 20 -71 46 -71 26 0 54 39
54 75 0 31 3 35 25 35 l25 0 0 -360 0 -360 -25 0 -25 0 0 118 c0 125 -11 162
-50 162 -42 0 -50 -24 -50 -156 l0 -124 -30 0 -30 0 0 360 0 360 30 0 c28 0
30 -2 30 -39z"/>
</g>
</svg>
