<?xml version="1.0" standalone="no"?>
<!DOCTYPE svg PUBLIC "-//W3C//DTD SVG 20010904//EN"
 "http://www.w3.org/TR/2001/REC-SVG-20010904/DTD/svg10.dtd">
<svg version="1.0" xmlns="http://www.w3.org/2000/svg"
 width="512.000000pt" height="512.000000pt" viewBox="0 0 512.000000 512.000000"
 preserveAspectRatio="xMidYMid meet">

<g transform="translate(0.000000,512.000000) scale(0.100000,-0.100000)"
fill="currentColor" stroke="none">
<path d="M425 4455 c-16 -15 -25 -36 -25 -55 0 -19 9 -40 25 -55 l24 -25 2111
0 2111 0 24 25 c33 32 33 78 0 110 l-24 25 -2111 0 -2111 0 -24 -25z"/>
<path d="M160 4147 c-49 -16 -133 -102 -148 -153 -17 -60 -17 -2808 0 -2868
16 -55 99 -138 154 -154 32 -9 576 -12 2396 -12 2654 0 2412 -8 2491 80 24 26
49 66 55 88 17 57 17 2807 0 2864 -6 22 -31 62 -55 88 -79 88 164 80 -2497 79
-1691 -1 -2371 -4 -2396 -12z m4775 -172 l25 -24 0 -1391 0 -1391 -25 -24 -24
-25 -256 0 -255 0 0 80 0 80 175 0 c173 0 176 0 200 25 l25 24 0 1231 0 1231
-25 24 -24 25 -2191 0 -2191 0 -24 -25 -25 -24 0 -1231 0 -1231 25 -24 24 -25
281 0 280 0 0 -80 0 -80 -360 0 -361 0 -24 25 -25 24 0 1391 0 1391 25 24 24
25 2351 0 2351 0 24 -25z m-2695 -775 l0 -480 -880 0 -880 0 0 480 0 480 880
0 880 0 0 -480z m800 -640 l0 -1120 -320 0 -320 0 0 1120 0 1120 320 0 320 0
0 -1120z m800 0 l0 -1120 -320 0 -320 0 0 1120 0 1120 320 0 320 0 0 -1120z
m800 0 l0 -1120 -320 0 -320 0 0 1120 0 1120 320 0 320 0 0 -1120z m-2400
-560 l0 -560 -880 0 -880 0 0 560 0 560 880 0 880 0 0 -560z m-610 -800 l0
-80 -270 0 -270 0 0 80 0 80 270 0 270 0 0 -80z m1010 0 l0 -80 -425 0 -425 0
0 80 0 80 425 0 425 0 0 -80z m800 0 l0 -80 -320 0 -320 0 0 80 0 80 320 0
320 0 0 -80z m800 0 l0 -80 -320 0 -320 0 0 80 0 80 320 0 320 0 0 -80z"/>
<path d="M665 3495 l-25 -24 0 -271 0 -271 25 -24 24 -25 271 0 271 0 24 25
25 24 0 271 0 271 -25 24 -24 25 -271 0 -271 0 -24 -25z m455 -295 l0 -160
-160 0 -160 0 0 160 0 160 160 0 160 0 0 -160z"/>
<path d="M1465 3495 l-25 -24 0 -271 0 -271 25 -24 24 -25 271 0 271 0 24 25
25 24 0 271 0 271 -25 24 -24 25 -271 0 -271 0 -24 -25z m455 -295 l0 -160
-160 0 -160 0 0 160 0 160 160 0 160 0 0 -160z"/>
<path d="M2585 3495 c-16 -15 -25 -36 -25 -55 0 -19 9 -40 25 -55 23 -24 31
-25 135 -25 104 0 112 1 135 25 16 15 25 36 25 55 0 19 -9 40 -25 55 -23 24
-31 25 -135 25 -104 0 -112 -1 -135 -25z"/>
<path d="M2585 3175 c-16 -15 -25 -36 -25 -55 0 -19 9 -40 25 -55 23 -24 31
-25 135 -25 104 0 112 1 135 25 16 15 25 36 25 55 0 19 -9 40 -25 55 -23 24
-31 25 -135 25 -104 0 -112 -1 -135 -25z"/>
<path d="M2585 2855 c-16 -15 -25 -36 -25 -55 0 -19 9 -40 25 -55 23 -24 31
-25 135 -25 104 0 112 1 135 25 16 15 25 36 25 55 0 19 -9 40 -25 55 -23 24
-31 25 -135 25 -104 0 -112 -1 -135 -25z"/>
<path d="M2585 2535 c-16 -15 -25 -36 -25 -55 0 -19 9 -40 25 -55 23 -24 31
-25 135 -25 104 0 112 1 135 25 16 15 25 36 25 55 0 19 -9 40 -25 55 -23 24
-31 25 -135 25 -104 0 -112 -1 -135 -25z"/>
<path d="M2585 2215 c-16 -15 -25 -36 -25 -55 0 -19 9 -40 25 -55 23 -24 31
-25 135 -25 104 0 112 1 135 25 16 15 25 36 25 55 0 19 -9 40 -25 55 -23 24
-31 25 -135 25 -104 0 -112 -1 -135 -25z"/>
<path d="M2585 1895 c-16 -15 -25 -36 -25 -55 0 -19 9 -40 25 -55 23 -24 31
-25 135 -25 104 0 112 1 135 25 16 15 25 36 25 55 0 19 -9 40 -25 55 -23 24
-31 25 -135 25 -104 0 -112 -1 -135 -25z"/>
<path d="M3385 3495 c-16 -15 -25 -36 -25 -55 0 -19 9 -40 25 -55 23 -24 31
-25 135 -25 104 0 112 1 135 25 16 15 25 36 25 55 0 19 -9 40 -25 55 -23 24
-31 25 -135 25 -104 0 -112 -1 -135 -25z"/>
<path d="M3385 3175 c-16 -15 -25 -36 -25 -55 0 -19 9 -40 25 -55 23 -24 31
-25 135 -25 104 0 112 1 135 25 16 15 25 36 25 55 0 19 -9 40 -25 55 -23 24
-31 25 -135 25 -104 0 -112 -1 -135 -25z"/>
<path d="M3385 2855 c-16 -15 -25 -36 -25 -55 0 -19 9 -40 25 -55 23 -24 31
-25 135 -25 104 0 112 1 135 25 16 15 25 36 25 55 0 19 -9 40 -25 55 -23 24
-31 25 -135 25 -104 0 -112 -1 -135 -25z"/>
<path d="M3385 2535 c-16 -15 -25 -36 -25 -55 0 -19 9 -40 25 -55 23 -24 31
-25 135 -25 104 0 112 1 135 25 16 15 25 36 25 55 0 19 -9 40 -25 55 -23 24
-31 25 -135 25 -104 0 -112 -1 -135 -25z"/>
<path d="M3385 2215 c-16 -15 -25 -36 -25 -55 0 -19 9 -40 25 -55 23 -24 31
-25 135 -25 104 0 112 1 135 25 16 15 25 36 25 55 0 19 -9 40 -25 55 -23 24
-31 25 -135 25 -104 0 -112 -1 -135 -25z"/>
<path d="M3385 1895 c-16 -15 -25 -36 -25 -55 0 -19 9 -40 25 -55 23 -24 31
-25 135 -25 104 0 112 1 135 25 16 15 25 36 25 55 0 19 -9 40 -25 55 -23 24
-31 25 -135 25 -104 0 -112 -1 -135 -25z"/>
<path d="M4185 3495 c-16 -15 -25 -36 -25 -55 0 -19 9 -40 25 -55 23 -24 31
-25 135 -25 104 0 112 1 135 25 16 15 25 36 25 55 0 19 -9 40 -25 55 -23 24
-31 25 -135 25 -104 0 -112 -1 -135 -25z"/>
<path d="M4185 3175 c-16 -15 -25 -36 -25 -55 0 -19 9 -40 25 -55 23 -24 31
-25 135 -25 104 0 112 1 135 25 16 15 25 36 25 55 0 19 -9 40 -25 55 -23 24
-31 25 -135 25 -104 0 -112 -1 -135 -25z"/>
<path d="M4185 2855 c-16 -15 -25 -36 -25 -55 0 -19 9 -40 25 -55 23 -24 31
-25 135 -25 104 0 112 1 135 25 16 15 25 36 25 55 0 19 -9 40 -25 55 -23 24
-31 25 -135 25 -104 0 -112 -1 -135 -25z"/>
<path d="M4185 2535 c-16 -15 -25 -36 -25 -55 0 -19 9 -40 25 -55 23 -24 31
-25 135 -25 104 0 112 1 135 25 16 15 25 36 25 55 0 19 -9 40 -25 55 -23 24
-31 25 -135 25 -104 0 -112 -1 -135 -25z"/>
<path d="M4185 2215 c-16 -15 -25 -36 -25 -55 0 -19 9 -40 25 -55 23 -24 31
-25 135 -25 104 0 112 1 135 25 16 15 25 36 25 55 0 19 -9 40 -25 55 -23 24
-31 25 -135 25 -104 0 -112 -1 -135 -25z"/>
<path d="M4185 1895 c-16 -15 -25 -36 -25 -55 0 -19 9 -40 25 -55 23 -24 31
-25 135 -25 104 0 112 1 135 25 16 15 25 36 25 55 0 19 -9 40 -25 55 -23 24
-31 25 -135 25 -104 0 -112 -1 -135 -25z"/>
<path d="M935 2375 l-25 -24 0 -351 0 -351 25 -24 24 -25 391 0 391 0 24 25
25 24 0 351 0 351 -25 24 -24 25 -391 0 -391 0 -24 -25z m695 -375 l0 -240
-280 0 -280 0 0 240 0 240 280 0 280 0 0 -240z"/>
<path d="M425 775 c-16 -15 -25 -36 -25 -55 0 -19 9 -40 25 -55 l24 -25 2111
0 2111 0 24 25 c33 32 33 78 0 110 l-24 25 -2111 0 -2111 0 -24 -25z"/>
</g>
</svg>
